<?xml version="1.0" encoding="UTF-8"?>
<!-- Generator: Adobe Illustrator 13.0.0, SVG Export Plug-In  -->
<!DOCTYPE svg PUBLIC "-//W3C//DTD SVG 1.1//EN" "http://www.w3.org/Graphics/SVG/1.1/DTD/svg11.dtd" [
	<!ENTITY ns_flows "http://ns.adobe.com/Flows/1.0/">
]>
<svg version="1.1" xmlns="http://www.w3.org/2000/svg" xmlns:xlink="http://www.w3.org/1999/xlink" xmlns:a="http://ns.adobe.com/AdobeSVGViewerExtensions/3.0/" x="0px" y="0px" width="615px" height="135px" viewBox="0 0 615 135" enable-background="new 0 0 615 135" xml:space="preserve">
<defs>
</defs>
<path fill="#6D6F71" d="M587.782,128.645v-2.376c0.432-0.144,0.864-0.36,1.296-0.648c0.864-0.576,1.584-1.512,2.088-2.592  l2.592,0.216c-0.36,1.296-1.224,2.592-2.592,3.744C590.158,127.853,589.006,128.356,587.782,128.645L587.782,128.645z   M587.782,121.156v-2.088h4.392c0-0.288,0.072-0.504,0.072-0.576c0-1.368-0.36-2.376-1.08-3.096c-0.648-0.72-1.512-1.08-2.592-1.08  c-0.288,0-0.576,0-0.792,0.072v-2.16c0.216,0,0.504-0.072,0.72-0.072c1.944,0,3.456,0.648,4.536,1.8  c1.152,1.152,1.728,2.736,1.728,4.824c0,0.72-0.072,1.512-0.216,2.376H587.782z M587.782,112.229v2.16  c-0.864,0.144-1.656,0.504-2.376,1.08c-0.936,0.792-1.656,2.016-2.088,3.6h4.464v2.088h-4.896c-0.072,0.288-0.072,0.576-0.072,0.792  c0,1.512,0.36,2.664,1.008,3.384c0.72,0.792,1.512,1.224,2.52,1.224c0.504,0,0.936-0.072,1.44-0.288v2.376  c-0.504,0.072-0.936,0.072-1.44,0.072c-1.224,0-2.304-0.216-3.24-0.792c-1.008-0.576-1.728-1.296-2.232-2.376  c-0.288-0.504-0.432-1.008-0.576-1.584v-4.104c0.216-0.936,0.504-1.944,1.008-2.88c0.792-1.584,1.8-2.808,3.096-3.6  C585.478,112.732,586.558,112.3,587.782,112.229L587.782,112.229z M580.294,113.236l0.216-0.432  c-0.072-0.072-0.144-0.072-0.216-0.144V113.236z M580.294,112.66v0.576l-0.864,2.016c-0.504-0.288-1.008-0.504-1.584-0.504  c-0.936,0-1.872,0.576-2.88,1.584c-1.008,1.08-1.8,2.952-2.376,5.688l-1.296,6.336h-2.592l3.312-15.84h2.376l-0.648,3.24  c0.792-1.224,1.584-2.088,2.376-2.664c0.792-0.648,1.584-0.936,2.376-0.936C578.998,112.156,579.574,112.373,580.294,112.66  L580.294,112.66z M580.294,119.86c-0.144,0.72-0.216,1.44-0.216,2.16c0,0.72,0.072,1.368,0.216,1.944V119.86L580.294,119.86z   M558.406,128.428v-1.944c0.432-0.144,0.864-0.288,1.296-0.576c0.792-0.432,1.44-1.08,1.944-1.944  c0.504-0.864,0.864-2.016,1.152-3.6c-0.432,0.144-0.792,0.288-1.224,0.36c-0.432,0.072-1.152,0.144-2.16,0.216  c-0.36,0.072-0.72,0.072-1.008,0.072v-1.944c0.36-0.072,0.72-0.072,1.152-0.072c1.656-0.072,2.88-0.288,3.6-0.576  c0.216-0.72,0.36-1.296,0.36-1.8c0-0.648-0.288-1.152-0.72-1.512c-0.648-0.432-1.512-0.72-2.736-0.72  c-0.576,0-1.152,0.072-1.656,0.216V112.3c0.576-0.072,1.152-0.144,1.8-0.144c1.944,0,3.456,0.504,4.608,1.44  c0.864,0.72,1.368,1.584,1.368,2.736c0,0.792-0.144,1.8-0.432,2.88l-0.864,3.96c-0.288,1.224-0.432,2.304-0.432,3.096  c0,0.432,0.144,1.152,0.36,2.088h-2.736c-0.144-0.504-0.216-1.152-0.288-1.944c-0.936,0.792-1.872,1.368-2.736,1.8  C558.838,128.284,558.622,128.356,558.406,128.428z M558.406,112.3v2.304c-0.432,0.144-0.792,0.288-1.152,0.576  c-0.72,0.504-1.224,1.152-1.584,2.088l-2.736-0.216c0.576-1.584,1.44-2.808,2.664-3.6C556.39,112.876,557.326,112.517,558.406,112.3  L558.406,112.3z M558.406,119.068v1.944c-1.08,0.144-1.872,0.288-2.376,0.504c-0.648,0.216-1.08,0.504-1.44,1.008  c-0.36,0.432-0.504,0.936-0.504,1.512c0,0.792,0.288,1.368,0.792,1.872c0.504,0.504,1.296,0.72,2.232,0.72  c0.432,0,0.864-0.072,1.296-0.144v1.944c-0.648,0.216-1.368,0.288-2.088,0.288c-1.512,0-2.664-0.432-3.528-1.296  c-0.936-0.864-1.368-1.944-1.368-3.24c0-0.936,0.216-1.728,0.576-2.376c0.432-0.72,0.936-1.224,1.656-1.656  c0.648-0.432,1.44-0.72,2.448-0.864C556.534,119.212,557.326,119.068,558.406,119.068L558.406,119.068z M520.75,127.924v-6.12  l1.512-7.2h-1.512v-2.088h1.944l0.864-3.888l3.096-1.872l-1.224,5.76h2.664l-0.504,2.088h-2.592l-1.872,8.784  c-0.216,1.08-0.288,1.8-0.288,2.016c0,0.288,0.072,0.504,0.216,0.72c0.216,0.144,0.504,0.216,0.936,0.216  c0.576,0,1.152,0,1.584-0.144l-0.432,2.232c-0.648,0.144-1.296,0.216-1.872,0.216C522.262,128.645,521.398,128.428,520.75,127.924  L520.75,127.924z M520.75,108.844c0.144,0.072,0.216,0.072,0.36,0.072l0.504-2.304c-0.288-0.072-0.576-0.144-0.864-0.216V108.844  L520.75,108.844z M531.406,128.356l-1.656-15.84h2.592l0.72,7.128l0.288,4.032c0,0.288,0.072,0.864,0.072,1.8  c0.288-1.008,0.576-1.8,0.792-2.376c0.216-0.504,0.504-1.296,1.008-2.304l3.744-8.28h2.952l0.504,7.92  c0.072,1.224,0.144,2.808,0.144,4.824c0.504-1.296,1.296-3.168,2.448-5.544l3.384-7.2h2.736l-7.776,15.84h-2.808l-0.576-9.288  c-0.072-0.576-0.072-1.656-0.072-3.312c-0.432,1.008-0.936,2.16-1.44,3.384l-4.248,9.216H531.406z M520.75,106.396v2.448  c-0.72-0.144-1.44-0.288-1.944-0.288s-0.936,0.144-1.224,0.432c-0.288,0.216-0.504,0.864-0.72,1.872l-0.36,1.656h3.024l-0.432,2.088  h-3.024l-2.88,13.752h-2.664l2.88-13.752h-2.448l0.432-2.088h2.448l0.432-2.232c0.288-1.08,0.504-1.944,0.792-2.448  c0.216-0.504,0.648-0.864,1.224-1.224c0.576-0.288,1.368-0.432,2.304-0.432C519.166,106.18,519.886,106.252,520.75,106.396  L520.75,106.396z M520.75,112.517h-0.144l-0.432,2.088h0.576V112.517L520.75,112.517z M520.75,121.804l-0.36,2.016  c-0.288,1.296-0.432,2.088-0.432,2.448c0,0.648,0.288,1.224,0.72,1.584l0.072,0.072V121.804L520.75,121.804z M500.518,128.645  v-2.088c0.216-0.072,0.504-0.144,0.72-0.288c0.576-0.216,1.08-0.576,1.584-1.008c0.432-0.504,0.864-1.08,1.224-1.656  c0.36-0.648,0.648-1.296,0.792-1.944c0.36-1.008,0.504-1.944,0.504-2.88c0-1.44-0.36-2.52-1.08-3.312s-1.656-1.224-2.736-1.224  c-0.36,0-0.648,0.072-1.008,0.144v-2.16c0.36,0,0.72-0.072,1.152-0.072c1.872,0,3.384,0.648,4.608,1.8  c1.152,1.224,1.728,2.808,1.728,4.824c0,1.872-0.36,3.528-1.08,5.112c-0.792,1.584-1.8,2.736-3.168,3.6  C502.75,128.14,501.67,128.5,500.518,128.645z M500.518,112.229v2.16c-0.432,0.072-0.864,0.288-1.296,0.504  c-0.72,0.36-1.296,1.008-1.872,1.728c-0.576,0.792-1.008,1.728-1.224,2.736c-0.288,1.008-0.432,1.944-0.432,2.736  c0,1.512,0.36,2.664,1.08,3.384c0.72,0.792,1.656,1.152,2.736,1.152c0.36,0,0.648,0,1.008-0.072v2.088  c-0.36,0.072-0.72,0.072-1.08,0.072c-1.224,0-2.304-0.216-3.313-0.792c-1.008-0.504-1.8-1.224-2.304-2.232  c-0.576-0.936-0.792-2.088-0.792-3.312c0-3.096,0.864-5.688,2.736-7.704C496.99,113.309,498.574,112.444,500.518,112.229  L500.518,112.229z M453.43,128.645v-2.088c0.216-0.072,0.432-0.144,0.648-0.288c0.576-0.216,1.152-0.576,1.584-1.008  c0.504-0.504,0.936-1.08,1.296-1.656c0.288-0.648,0.576-1.296,0.792-1.944c0.288-1.008,0.432-1.944,0.432-2.88  c0-1.44-0.36-2.52-1.08-3.312c-0.72-0.792-1.584-1.224-2.664-1.224c-0.36,0-0.72,0.072-1.008,0.144v-2.16  c0.36,0,0.72-0.072,1.08-0.072c1.944,0,3.456,0.648,4.608,1.8c1.152,1.224,1.8,2.808,1.8,4.824c0,1.872-0.432,3.528-1.152,5.112  c-0.72,1.584-1.8,2.736-3.096,3.6C455.59,128.14,454.51,128.5,453.43,128.645L453.43,128.645z M472.654,121.3l2.88-0.288  l-0.072,0.792c0,0.864,0.216,1.584,0.576,2.304c0.432,0.72,1.08,1.224,1.944,1.656c0.864,0.36,1.944,0.576,3.168,0.576  c1.8,0,3.096-0.432,4.032-1.152c0.936-0.792,1.368-1.656,1.368-2.664c0-0.648-0.216-1.296-0.72-1.872  c-0.504-0.504-1.872-1.296-4.104-2.232c-1.656-0.792-2.88-1.368-3.456-1.728c-1.008-0.648-1.728-1.368-2.232-2.088  c-0.432-0.792-0.648-1.656-0.648-2.664c0-1.08,0.288-2.088,0.864-3.024c0.648-0.864,1.584-1.584,2.736-2.088  c1.224-0.432,2.52-0.648,4.032-0.648c1.8,0,3.24,0.288,4.464,0.864c1.224,0.576,2.16,1.368,2.664,2.376  c0.576,1.008,0.864,1.944,0.864,2.88c0,0.072,0,0.216,0,0.432l-2.808,0.216c0-0.648-0.072-1.08-0.216-1.44  c-0.216-0.648-0.504-1.152-0.936-1.512c-0.36-0.432-0.936-0.792-1.728-1.008c-0.72-0.288-1.512-0.432-2.448-0.432  c-1.584,0-2.808,0.36-3.672,1.08c-0.72,0.576-1.008,1.296-1.008,2.16c0,0.576,0.144,1.08,0.432,1.44  c0.216,0.432,0.72,0.864,1.512,1.296c0.504,0.288,1.728,0.864,3.672,1.656c1.512,0.72,2.664,1.296,3.24,1.656  c0.792,0.576,1.368,1.224,1.8,1.944c0.432,0.72,0.647,1.584,0.647,2.52c0,1.224-0.36,2.304-1.08,3.312  c-0.72,1.008-1.728,1.8-2.952,2.304c-1.296,0.576-2.736,0.864-4.392,0.864c-2.448,0-4.464-0.576-6.048-1.656  S472.654,124.108,472.654,121.3z M453.43,112.229v2.16c-0.504,0.072-0.936,0.288-1.296,0.504c-0.72,0.36-1.368,1.008-1.944,1.728  c-0.504,0.792-0.936,1.728-1.224,2.736c-0.288,1.008-0.36,1.944-0.36,2.736c0,1.512,0.36,2.664,1.08,3.384  c0.72,0.792,1.584,1.152,2.664,1.152c0.36,0,0.72,0,1.08-0.072v2.088c-0.36,0.072-0.72,0.072-1.08,0.072  c-1.224,0-2.376-0.216-3.384-0.792c-1.008-0.504-1.728-1.224-2.304-2.232c-0.504-0.936-0.792-2.088-0.792-3.312  c0-3.096,0.936-5.688,2.736-7.704C449.902,113.309,451.486,112.444,453.43,112.229L453.43,112.229z M386.182,134.62v-2.592  c0.504,0.072,0.936,0.144,1.44,0.144c0.576,0,1.008-0.072,1.296-0.36c0.432-0.288,0.936-0.936,1.44-1.872l0.864-1.512l-2.592-15.912  h2.592l1.224,8.064c0.216,1.584,0.432,3.168,0.648,4.752l7.056-12.816h2.808l-10.08,18c-1.008,1.728-1.872,2.88-2.592,3.456  c-0.792,0.576-1.656,0.864-2.592,0.864C387.19,134.836,386.686,134.764,386.182,134.62L386.182,134.62z M386.182,114.172l0.36-1.656  h-0.36V114.172L386.182,114.172z M415.054,109.564l0.648-3.024h2.664l-0.576,3.024H415.054L415.054,109.564z M411.166,128.356  l3.24-15.84h2.736l-3.312,15.84H411.166L411.166,128.356z M418.654,128.356l3.312-15.84h2.448l-0.576,2.808  c1.08-1.08,2.016-1.872,2.952-2.376c0.936-0.504,1.872-0.792,2.88-0.792c1.296,0,2.304,0.36,3.024,1.08  c0.72,0.72,1.08,1.584,1.08,2.808c0,0.576-0.144,1.512-0.36,2.736l-2.016,9.576h-2.736l2.088-10.008  c0.216-1.008,0.36-1.728,0.36-2.16c0-0.504-0.216-0.936-0.576-1.296c-0.36-0.288-0.864-0.504-1.584-0.504  c-1.368,0-2.592,0.504-3.672,1.512s-1.872,2.664-2.376,5.112l-1.512,7.344H418.654L418.654,128.356z M442.558,126.196l-0.432,2.232  c-0.648,0.144-1.224,0.216-1.872,0.216c-1.08,0-1.944-0.288-2.52-0.792c-0.504-0.36-0.72-0.936-0.72-1.584  c0-0.36,0.072-1.152,0.36-2.448l1.944-9.216h-2.16l0.432-2.088h2.16l0.792-3.888l3.096-1.872l-1.224,5.76h2.664l-0.432,2.088h-2.664  l-1.8,8.784c-0.216,1.08-0.36,1.8-0.36,2.016c0,0.288,0.072,0.504,0.288,0.72c0.144,0.144,0.504,0.216,0.864,0.216  C441.622,126.34,442.126,126.34,442.558,126.196z M386.182,112.517v1.656l-0.144,0.432h-2.592l-1.872,8.784  c-0.216,1.08-0.288,1.8-0.288,2.016c0,0.288,0.072,0.504,0.216,0.72c0.216,0.144,0.504,0.216,0.936,0.216  c0.576,0,1.152,0,1.584-0.144l-0.432,2.232c-0.648,0.144-1.296,0.216-1.872,0.216c-1.08,0-1.944-0.288-2.592-0.792  c-0.432-0.36-0.72-0.936-0.72-1.584c0-0.36,0.144-1.152,0.432-2.448l1.872-9.216h-2.088l0.432-2.088h2.088l0.864-3.888l3.096-1.872  l-1.224,5.76H386.182L386.182,112.517z M386.182,132.028v2.592c-0.144-0.072-0.216-0.072-0.36-0.144l0.144-2.52  C386.038,131.957,386.11,132.028,386.182,132.028L386.182,132.028z M352.558,128.428v-1.944c0.432-0.144,0.864-0.288,1.296-0.576  c0.792-0.432,1.512-1.08,1.944-1.944c0.504-0.864,0.864-2.016,1.152-3.6c-0.432,0.144-0.792,0.288-1.224,0.36  c-0.432,0.072-1.152,0.144-2.16,0.216c-0.36,0.072-0.648,0.072-1.008,0.072v-1.944c0.36-0.072,0.72-0.072,1.152-0.072  c1.656-0.072,2.88-0.288,3.6-0.576c0.216-0.72,0.36-1.296,0.36-1.8c0-0.648-0.288-1.152-0.72-1.512  c-0.648-0.432-1.512-0.72-2.736-0.72c-0.576,0-1.152,0.072-1.656,0.216V112.3c0.576-0.072,1.152-0.144,1.8-0.144  c1.944,0,3.528,0.504,4.608,1.44c0.936,0.72,1.368,1.584,1.368,2.736c0,0.792-0.144,1.8-0.432,2.88l-0.864,3.96  c-0.288,1.224-0.432,2.304-0.432,3.096c0,0.432,0.144,1.152,0.36,2.088h-2.736c-0.144-0.504-0.216-1.152-0.288-1.944  c-0.936,0.792-1.872,1.368-2.736,1.8C352.99,128.284,352.774,128.356,352.558,128.428L352.558,128.428z M362.638,128.356  l4.608-21.816h2.664l-4.536,21.816H362.638L362.638,128.356z M374.158,109.564l0.576-3.024h2.736l-0.648,3.024H374.158  L374.158,109.564z M370.198,128.356l3.312-15.84h2.664l-3.312,15.84H370.198z M352.558,112.3v2.304  c-0.432,0.144-0.792,0.288-1.152,0.576c-0.72,0.504-1.224,1.152-1.512,2.088l-2.736-0.216c0.504-1.584,1.44-2.808,2.592-3.6  C350.542,112.876,351.478,112.517,352.558,112.3L352.558,112.3z M352.558,119.068v1.944c-1.008,0.144-1.8,0.288-2.376,0.504  c-0.648,0.216-1.08,0.504-1.44,1.008c-0.288,0.432-0.504,0.936-0.504,1.512c0,0.792,0.288,1.368,0.792,1.872s1.296,0.72,2.232,0.72  c0.432,0,0.864-0.072,1.296-0.144v1.944c-0.648,0.216-1.368,0.288-2.088,0.288c-1.512,0-2.664-0.432-3.528-1.296  c-0.936-0.864-1.368-1.944-1.368-3.24c0-0.936,0.216-1.728,0.576-2.376c0.432-0.72,0.936-1.224,1.656-1.656  c0.648-0.432,1.44-0.72,2.448-0.864C350.686,119.212,351.478,119.068,352.558,119.068L352.558,119.068z M315.406,128.716v-2.448  c0.576-0.144,1.08-0.216,1.584-0.432c-0.504-0.432-1.08-0.864-1.584-1.224v-2.52c0.576,0.288,1.08,0.576,1.584,0.936  s1.152,0.936,1.872,1.728c1.224-0.936,2.232-2.232,2.952-3.888c0.72-1.584,1.08-3.312,1.08-5.112c0-2.16-0.576-3.96-1.8-5.256  c-1.224-1.296-2.664-1.944-4.464-1.944c-0.36,0-0.792,0.072-1.224,0.144v-2.52c0.432,0,0.792,0,1.224,0  c2.664,0,4.896,0.864,6.624,2.664c1.728,1.728,2.592,4.104,2.592,7.128c0,2.16-0.432,4.176-1.368,6.048s-2.16,3.384-3.816,4.608  c0.72,0.864,1.728,1.728,3.024,2.52l-1.296,1.728c-1.368-0.864-2.52-1.872-3.6-3.168  C317.638,128.284,316.486,128.645,315.406,128.716L315.406,128.716z M338.446,125.548c-1.944,2.088-3.888,3.168-5.832,3.168  c-1.224,0-2.232-0.36-2.952-1.008c-0.792-0.72-1.152-1.584-1.152-2.592c0-0.648,0.144-1.8,0.504-3.456l1.944-9.144h2.664  l-2.088,10.152c-0.216,0.864-0.288,1.512-0.288,1.944c0,0.648,0.216,1.08,0.576,1.44c0.36,0.288,0.864,0.504,1.584,0.504  c0.72,0,1.512-0.216,2.232-0.576c0.72-0.36,1.296-0.864,1.8-1.512c0.576-0.576,1.008-1.368,1.296-2.232  c0.216-0.504,0.504-1.44,0.792-2.88l1.44-6.84h2.664l-3.312,15.84h-2.448L338.446,125.548z M315.406,106.18v2.52  c-1.008,0.144-2.016,0.576-3.024,1.152c-1.368,0.864-2.448,2.16-3.24,3.816c-0.792,1.656-1.152,3.456-1.152,5.4  c0,2.448,0.72,4.392,2.232,5.688c1.152,1.08,2.448,1.584,3.816,1.584c0.504,0,0.936,0,1.368-0.072v2.448  c-0.288,0.072-0.576,0.072-0.864,0.072c-1.08,0-2.232-0.216-3.528-0.648c-1.296-0.36-2.304-1.008-3.168-1.8  c-0.864-0.864-1.512-1.872-2.016-3.168c-0.504-1.368-0.72-2.736-0.72-4.32c0-1.944,0.36-3.744,1.08-5.472  c0.576-1.44,1.368-2.664,2.304-3.672c0.936-1.08,2.016-1.872,3.168-2.448C312.814,106.685,314.11,106.324,315.406,106.18  L315.406,106.18z M315.406,122.092l-0.144-0.072l-1.08,1.8c0.432,0.216,0.792,0.504,1.224,0.792V122.092L315.406,122.092z   M284.95,134.477v-2.304c0.504-0.216,0.936-0.576,1.296-0.936c0.432-0.576,0.864-1.8,1.296-3.672l0.216-1.296  c-0.864,0.936-1.872,1.512-2.808,1.872v-2.088c0.504-0.216,1.008-0.432,1.512-0.792c0.864-0.648,1.584-1.584,2.16-2.88  c0.504-1.296,0.792-2.592,0.792-3.744c0-1.296-0.36-2.376-1.08-3.096c-0.72-0.792-1.584-1.152-2.664-1.152  c-0.288,0-0.504,0-0.72,0.072v-2.232c0.216,0,0.432-0.072,0.648-0.072c2.088,0,3.672,1.008,4.824,2.952l0.504-2.592h2.52  l-3.24,15.336c-0.36,1.656-0.792,2.952-1.368,3.888c-0.576,0.936-1.368,1.656-2.376,2.232  C286.03,134.188,285.454,134.404,284.95,134.477z M284.95,112.229v2.232c-0.432,0.072-0.792,0.216-1.224,0.432  c-0.576,0.36-1.152,0.864-1.728,1.584c-0.504,0.72-0.936,1.584-1.152,2.592c-0.288,1.008-0.432,1.8-0.432,2.304  c0,1.08,0.072,1.872,0.288,2.448c0.288,0.792,0.72,1.368,1.296,1.728c0.576,0.432,1.152,0.648,1.872,0.648  c0.36,0,0.72-0.072,1.08-0.144v2.088c-0.576,0.144-1.08,0.216-1.656,0.216c-1.584,0-2.952-0.576-4.032-1.728  c-1.08-1.224-1.584-2.88-1.584-5.04c0-1.728,0.432-3.384,1.296-4.896c0.792-1.512,1.8-2.592,3.024-3.384  C282.934,112.732,283.942,112.373,284.95,112.229L284.95,112.229z M284.95,132.172v2.304c-0.648,0.144-1.296,0.216-1.944,0.216  c-1.296,0-2.376-0.144-3.312-0.432c-0.936-0.36-1.584-0.864-2.016-1.44c-0.504-0.648-0.72-1.368-0.72-2.232  c0-0.216,0-0.504,0.072-0.792l2.736,0.288c0,0.576,0.072,1.08,0.216,1.368c0.216,0.288,0.432,0.576,0.792,0.72  c0.504,0.216,1.152,0.36,1.944,0.36C283.582,132.532,284.302,132.388,284.95,132.172L284.95,132.172z M242.11,128.428v-2.016  c0.864-0.216,1.656-0.864,2.376-1.728c1.296-1.728,1.944-3.816,1.944-6.264c0-1.296-0.288-2.232-0.936-2.952  c-0.648-0.72-1.512-1.08-2.52-1.08c-0.288,0-0.576,0.072-0.864,0.144v-2.304c0.288,0,0.504-0.072,0.72-0.072  c2.016,0,3.456,1.008,4.464,2.88l1.8-8.496h2.664l-4.536,21.816h-2.52l0.504-2.304C244.198,127.204,243.19,127.996,242.11,128.428  L242.11,128.428z M256.006,109.564l0.576-3.024h2.736l-0.648,3.024H256.006L256.006,109.564z M252.046,128.356l3.312-15.84h2.664  l-3.312,15.84H252.046L252.046,128.356z M259.534,128.356l3.312-15.84h2.448l-0.576,2.808c1.08-1.08,2.088-1.872,3.024-2.376  s1.872-0.792,2.808-0.792c1.296,0,2.304,0.36,3.024,1.08c0.72,0.72,1.08,1.584,1.08,2.808c0,0.576-0.072,1.512-0.36,2.736  l-2.016,9.576h-2.736l2.16-10.008c0.216-1.008,0.288-1.728,0.288-2.16c0-0.504-0.216-0.936-0.576-1.296  c-0.36-0.288-0.864-0.504-1.512-0.504c-1.44,0-2.664,0.504-3.744,1.512s-1.872,2.664-2.376,5.112l-1.512,7.344H259.534z   M192.07,106.541h0.648c1.224,0,2.16,0,2.736,0.144c0.936,0.144,1.8,0.432,2.448,0.864s1.224,1.008,1.584,1.728  c0.36,0.72,0.504,1.584,0.504,2.448c0,1.152-0.288,2.232-0.936,3.168c-0.648,0.936-1.728,1.584-3.024,2.088  c1.152,0.36,2.016,0.936,2.592,1.728c0.648,0.792,0.936,1.728,0.936,2.736c0,1.224-0.36,2.376-1.08,3.456  c-0.648,1.152-1.584,1.944-2.736,2.592c-1.08,0.576-2.304,0.864-3.672,0.864v-2.52c0.144,0,0.288-0.072,0.36-0.072  c0.936-0.144,1.728-0.432,2.304-0.792c0.576-0.432,1.008-0.936,1.296-1.512c0.36-0.648,0.504-1.296,0.504-2.016  c0-1.008-0.288-1.8-0.936-2.304c-0.648-0.504-1.8-0.792-3.528-0.792v-2.52c1.728-0.072,3.024-0.36,3.816-1.008  c0.936-0.648,1.44-1.656,1.44-2.952c0-0.576-0.144-1.152-0.432-1.584c-0.288-0.432-0.72-0.792-1.152-1.008  c-0.504-0.144-1.44-0.288-2.736-0.288h-0.936V106.541L192.07,106.541z M242.11,112.229v2.304c-0.288,0.072-0.576,0.144-0.864,0.288  c-0.504,0.288-1.08,0.792-1.584,1.512c-0.504,0.648-0.936,1.512-1.296,2.592s-0.576,2.016-0.576,2.808  c0,1.08,0.144,2.016,0.36,2.592c0.216,0.648,0.576,1.224,1.08,1.584c0.576,0.432,1.152,0.648,1.944,0.648  c0.288,0,0.648,0,0.936-0.144v2.016c-0.576,0.216-1.152,0.288-1.728,0.288c-1.512,0-2.736-0.504-3.744-1.656  c-1.008-1.08-1.512-2.736-1.512-4.824c0-1.944,0.36-3.672,1.152-5.256s1.8-2.808,3.024-3.6  C240.238,112.732,241.174,112.373,242.11,112.229L242.11,112.229z M212.878,125.548c-1.944,2.088-3.888,3.168-5.832,3.168  c-1.224,0-2.232-0.36-2.952-1.008c-0.792-0.72-1.152-1.584-1.152-2.592c0-0.648,0.144-1.8,0.504-3.456l1.944-9.144h2.664  l-2.088,10.152c-0.216,0.864-0.288,1.512-0.288,1.944c0,0.648,0.144,1.08,0.504,1.44c0.432,0.288,0.936,0.504,1.656,0.504  c0.72,0,1.44-0.216,2.232-0.576c0.72-0.36,1.296-0.864,1.8-1.512c0.576-0.576,1.008-1.368,1.296-2.232  c0.216-0.504,0.504-1.44,0.792-2.88l1.44-6.84h2.664l-3.312,15.84h-2.52L212.878,125.548L212.878,125.548z M223.534,109.564  l0.648-3.024h2.664l-0.648,3.024H223.534L223.534,109.564z M219.574,128.356l3.312-15.84h2.664l-3.312,15.84H219.574  L219.574,128.356z M226.918,128.356l4.536-21.816h2.664l-4.536,21.816H226.918z M181.342,128.356l4.608-21.816h6.12v2.448h-3.744  l-1.44,6.84h4.464c0.216,0,0.504,0,0.72,0v2.52h-0.144h-5.544l-1.584,7.56h4.968c1.08,0,1.8,0,2.304-0.072v2.52h-0.144H181.342z"/>
<path fill="#3159A8" d="M147.285,6.915l-2.509,9.365h4.884l-2.521,9.409h-4.884l-8.524,31.813c-1.049,3.914-1.431,6.093-1.148,6.542  s1.903,0.672,4.86,0.672l-2.569,9.589h-7.303c-4.122,0-7.019-0.172-8.689-0.516c-1.671-0.343-3.011-1.135-4.023-2.374  c-1.012-1.24-1.468-2.659-1.368-4.257c0.099-1.598,0.941-5.354,2.526-11.269l8.092-30.199h-3.898l2.521-9.409h3.898l2.509-9.365  H147.285z"/>
<path fill="#3159A8" d="M186.781,45.627h-23.434l-3.446,12.859c-0.72,2.688-0.991,4.421-0.81,5.198  c0.179,0.777,0.823,1.165,1.928,1.165c1.373,0,2.43-0.515,3.17-1.546c0.738-1.03,1.505-3.024,2.297-5.981l2.101-7.841h17.161  l-1.177,4.391c-0.984,3.674-1.973,6.497-2.963,8.468c-0.992,1.972-2.639,4.077-4.941,6.318c-2.303,2.24-4.912,3.92-7.825,5.04  c-2.915,1.121-6.343,1.681-10.285,1.681c-3.824,0-7.051-0.553-9.682-1.658c-2.632-1.104-4.503-2.622-5.614-4.548  c-1.112-1.927-1.671-4.047-1.678-6.362s0.582-5.683,1.767-10.104l4.646-17.34c1.393-5.198,3.192-9.297,5.402-12.3  c2.208-3.001,5.124-5.302,8.749-6.9c3.624-1.598,7.513-2.397,11.665-2.397c5.078,0,9.009,0.963,11.793,2.89  c2.784,1.926,4.415,4.48,4.892,7.662c0.476,3.182-0.057,7.655-1.602,13.419L186.781,45.627z M171.228,35.95l1.165-4.346  c0.824-3.076,1.192-5.063,1.104-5.959c-0.089-0.896-0.642-1.344-1.656-1.344c-1.255,0-2.134,0.381-2.636,1.143  c-0.503,0.761-1.203,2.815-2.099,6.161l-1.165,4.346H171.228z"/>
<path fill="#3159A8" d="M234.941,37.294H217.87l1.837-6.855c0.64-2.39,0.88-4.01,0.72-4.862c-0.161-0.851-0.763-1.277-1.809-1.277  s-1.848,0.374-2.406,1.12c-0.559,0.747-1.186,2.42-1.882,5.019l-7.516,28.048c-0.568,2.122-0.726,3.712-0.472,4.772  c0.253,1.06,0.903,1.59,1.949,1.59c1.225,0,2.202-0.552,2.931-1.658c0.729-1.105,1.506-3.196,2.331-6.273l1.896-7.08h16.13  c-1.302,4.75-2.429,8.312-3.378,10.686c-0.95,2.375-2.604,4.81-4.959,7.304c-2.356,2.494-5.063,4.376-8.122,5.646  c-3.059,1.269-6.589,1.904-10.592,1.904c-5.107,0-8.921-0.874-11.44-2.621c-2.519-1.748-3.976-4.196-4.371-7.348  c-0.395-3.151,0.184-7.624,1.736-13.419l4.526-16.892c1.353-5.047,2.88-8.856,4.585-11.425c1.703-2.569,4.484-4.861,8.339-6.878  c3.856-2.016,8.159-3.024,12.908-3.024c4.72,0,8.483,1.001,11.293,3.002c2.809,2.002,4.358,4.525,4.647,7.572  C237.041,27.392,236.437,31.708,234.941,37.294z"/>
<path fill="#3159A8" d="M267.94,1.763l-4.373,16.32c1.938-1.438,3.907-2.516,5.908-3.234c1.999-0.718,4.03-1.078,6.091-1.078  c3.166,0,5.646,0.807,7.439,2.419c1.793,1.613,2.654,3.472,2.582,5.579c-0.071,2.105-0.855,5.952-2.352,11.538L272.25,74.304  h-18.102l11.213-41.849c0.929-3.465,1.353-5.69,1.274-6.676c-0.08-0.985-0.717-1.479-1.912-1.479c-1.105,0-1.988,0.509-2.648,1.523  c-0.661,1.016-1.395,3.032-2.203,6.049l-11.369,42.432h-18.102l19.437-72.541H267.94z"/>
<path fill="#3159A8" d="M312.825,14.846l-1.782,5.478c1.899-2.185,3.944-3.823,6.134-4.915c2.189-1.092,4.523-1.638,7.003-1.638  c3.106,0,5.449,0.732,7.029,2.195c1.579,1.464,2.354,3.309,2.326,5.534c-0.029,2.225-0.74,5.937-2.132,11.134l-11.165,41.67h-18.102  l11.033-41.177c1.096-4.092,1.63-6.587,1.602-7.483c-0.029-0.896-0.656-1.344-1.88-1.344c-1.285,0-2.229,0.516-2.834,1.546  c-0.605,1.031-1.508,3.786-2.708,8.267l-10.77,40.191h-18.102l15.932-59.458H312.825z"/>
<path fill="#3159A8" d="M377.755,35.726l-3.902,14.562c-1.433,5.347-2.751,9.268-3.957,11.761c-1.207,2.495-2.981,4.825-5.323,6.99  c-2.344,2.167-5.035,3.764-8.073,4.795c-3.039,1.03-6.351,1.545-9.936,1.545c-4.003,0-7.274-0.441-9.816-1.322  s-4.344-2.21-5.406-3.987c-1.063-1.777-1.584-3.928-1.564-6.452c0.019-2.524,0.705-6.31,2.058-11.359l4.082-15.234  c1.481-5.526,3.234-9.842,5.262-12.949c2.027-3.106,4.846-5.601,8.457-7.482s7.836-2.823,12.675-2.823  c4.062,0,7.388,0.604,9.976,1.815c2.588,1.209,4.413,2.786,5.477,4.727c1.063,1.942,1.609,3.943,1.64,6.004  S378.883,31.514,377.755,35.726z M360.853,31.245c0.816-3.047,1.166-4.966,1.05-5.758c-0.117-0.791-0.712-1.188-1.788-1.188  c-1.076,0-1.899,0.396-2.469,1.188c-0.571,0.792-1.264,2.711-2.081,5.758l-7.191,26.839c-0.752,2.808-1.063,4.638-0.933,5.488  c0.13,0.852,0.718,1.277,1.764,1.277c1.075,0,1.888-0.388,2.44-1.165c0.551-0.776,1.171-2.449,1.86-5.019L360.853,31.245z"/>
<path fill="#3159A8" d="M411.453,1.763l-19.437,72.541h-18.64l19.438-72.541H411.453z"/>
<path fill="#3159A8" d="M449.803,35.726l-3.902,14.562c-1.433,5.347-2.752,9.268-3.958,11.761c-1.206,2.495-2.98,4.825-5.323,6.99  c-2.344,2.167-5.035,3.764-8.073,4.795c-3.04,1.03-6.352,1.545-9.936,1.545c-4.003,0-7.275-0.441-9.817-1.322  c-2.542-0.881-4.344-2.21-5.406-3.987c-1.063-1.777-1.584-3.928-1.564-6.452c0.019-2.524,0.705-6.31,2.058-11.359l4.082-15.234  c1.48-5.526,3.234-9.842,5.262-12.949c2.026-3.106,4.846-5.601,8.457-7.482c3.61-1.882,7.836-2.823,12.675-2.823  c4.062,0,7.388,0.604,9.976,1.815c2.588,1.209,4.413,2.786,5.477,4.727c1.063,1.942,1.609,3.943,1.64,6.004  S450.931,31.514,449.803,35.726z M432.902,31.245c0.816-3.047,1.166-4.966,1.05-5.758c-0.117-0.791-0.713-1.188-1.788-1.188  s-1.898,0.396-2.469,1.188c-0.57,0.792-1.264,2.711-2.08,5.758l-7.192,26.839c-0.752,2.808-1.063,4.638-0.933,5.488  c0.13,0.852,0.718,1.277,1.764,1.277c1.075,0,1.889-0.388,2.441-1.165c0.551-0.776,1.171-2.449,1.86-5.019L432.902,31.245z"/>
<path fill="#3159A8" d="M502.489,14.846l-12.27,45.792c-1.657,6.183-2.87,10.179-3.637,11.985c-0.769,1.808-2.289,3.719-4.561,5.735  c-2.273,2.017-5.097,3.555-8.473,4.615c-3.376,1.06-7.409,1.59-12.098,1.59c-5.766,0-10.133-0.979-13.104-2.935  c-2.97-1.957-3.748-5.802-2.33-11.538h17.564c-0.705,2.629-0.101,3.943,1.811,3.943c1.374,0,2.393-0.403,3.058-1.211  c0.664-0.807,1.341-2.497,2.03-5.068l1.202-4.486c-1.931,1.408-3.851,2.471-5.761,3.189c-1.911,0.719-3.807,1.079-5.688,1.079  c-3.256,0-5.76-0.657-7.514-1.972c-1.754-1.314-2.733-3.039-2.937-5.175c-0.205-2.136,0.222-5.175,1.278-9.118l5.787-21.597  c1.513-5.646,3.616-9.708,6.313-12.188c2.695-2.479,6.119-3.719,10.271-3.719c2.27,0,4.214,0.464,5.833,1.392  c1.618,0.928,2.91,2.32,3.876,4.176l2.503-4.492H502.489z M480.116,30.618c0.728-2.718,1.036-4.451,0.922-5.198  c-0.114-0.746-0.708-1.12-1.783-1.12c-1.046,0-1.899,0.426-2.56,1.277c-0.662,0.852-1.329,2.532-2,5.041l-5.354,19.983  c-0.713,2.659-1.011,4.384-0.894,5.175c0.116,0.792,0.697,1.188,1.743,1.188c1.194,0,2.099-0.477,2.714-1.434  c0.614-0.956,1.374-3.121,2.278-6.497L480.116,30.618z"/>
<path fill="#3159A8" d="M527.58,14.846l-15.932,59.458H493.01l15.932-59.458H527.58z M531.086,1.763l-2.533,9.454h-18.639  l2.533-9.454H531.086z"/>
<path fill="#3159A8" d="M566.827,45.627h-23.434l-3.446,12.859c-0.72,2.688-0.991,4.421-0.81,5.198  c0.179,0.777,0.822,1.165,1.928,1.165c1.374,0,2.43-0.515,3.17-1.546c0.739-1.03,1.505-3.024,2.297-5.981l2.101-7.841h17.161  l-1.176,4.391c-0.985,3.674-1.973,6.497-2.964,8.468c-0.991,1.972-2.638,4.077-4.941,6.318c-2.303,2.24-4.911,3.92-7.825,5.04  c-2.914,1.121-6.342,1.681-10.285,1.681c-3.823,0-7.051-0.553-9.682-1.658c-2.632-1.104-4.503-2.622-5.614-4.548  c-1.112-1.927-1.671-4.047-1.678-6.362c-0.007-2.315,0.582-5.683,1.767-10.104l4.646-17.34c1.393-5.198,3.192-9.297,5.402-12.3  c2.208-3.001,5.124-5.302,8.749-6.9c3.624-1.598,7.513-2.397,11.665-2.397c5.078,0,9.009,0.963,11.793,2.89  c2.784,1.926,4.416,4.48,4.893,7.662c0.476,3.182-0.058,7.655-1.602,13.419L566.827,45.627z M551.274,35.95l1.165-4.346  c0.824-3.076,1.192-5.063,1.104-5.959c-0.089-0.896-0.641-1.344-1.657-1.344c-1.254,0-2.133,0.381-2.636,1.143  c-0.503,0.761-1.203,2.815-2.099,6.161l-1.165,4.346H551.274z"/>
<path fill="#3159A8" d="M612.864,33.844h-16.041l0.865-3.226c0.736-2.748,1.045-4.488,0.928-5.22  c-0.118-0.731-0.804-1.098-2.059-1.098c-1.016,0-1.867,0.336-2.555,1.008c-0.689,0.673-1.212,1.681-1.572,3.025  c-0.488,1.822-0.72,3.159-0.694,4.01c0.025,0.851,0.537,1.785,1.535,2.8c0.998,1.016,3.208,2.495,6.63,4.436  c4.568,2.57,7.37,4.989,8.405,7.259c1.034,2.271,0.971,5.572-0.189,9.902c-1.297,4.839-2.902,8.491-4.817,10.955  c-1.915,2.465-4.522,4.362-7.82,5.691c-3.298,1.329-7.023,1.994-11.175,1.994c-4.601,0-8.344-0.717-11.23-2.151  c-2.887-1.434-4.615-3.375-5.183-5.825c-0.569-2.449-0.188-6.153,1.14-11.112l0.768-2.868h16.041l-1.008,3.764  c-0.856,3.197-1.211,5.272-1.064,6.228c0.147,0.957,0.818,1.434,2.013,1.434c1.284,0,2.267-0.321,2.946-0.963  c0.68-0.642,1.296-1.994,1.849-4.055c0.76-2.837,0.908-4.615,0.443-5.332c-0.495-0.717-3.437-2.837-8.825-6.363  c-4.517-2.986-7.031-5.697-7.544-8.132c-0.513-2.434-0.321-5.324,0.576-8.67c1.273-4.75,2.838-8.251,4.697-10.507  c1.859-2.255,4.453-3.994,7.784-5.22c3.33-1.224,6.981-1.837,10.955-1.837c3.943,0,7.162,0.5,9.657,1.501  c2.494,1.001,4.261,2.323,5.3,3.965c1.038,1.643,1.526,3.167,1.464,4.57c-0.063,1.404-0.494,3.6-1.295,6.586L612.864,33.844z"/>
<path fill="#3159A8" d="M39.1,73.971l-2.35,8.771H22.52c-3.431,0-5.777-0.265-7.036-0.794c-1.261-0.53-1.998-1.315-2.211-2.355  c-0.213-1.041,0.043-2.915,0.768-5.621c-4.234-0.119-7.604-1.237-10.109-3.356c-2.505-2.118-3.812-4.811-3.922-8.078  c-0.108-3.267,0.708-8.151,2.45-14.655l6.008-22.419c1.319-4.922,2.615-8.674,3.889-11.254c1.273-2.58,3.125-5.012,5.557-7.294  s5.234-4.005,8.41-5.169C29.5,0.582,32.832,0,36.322,0c4.207,0,7.767,0.716,10.68,2.147c2.912,1.432,4.886,3.251,5.922,5.458  c1.033,2.207,1.479,4.496,1.336,6.867c-0.143,2.371-0.842,5.898-2.096,10.58l-6.306,23.53c-1.726,6.442-3.209,10.811-4.451,13.107  s-2.933,4.123-5.071,5.479c-2.139,1.357-4.779,2.394-7.926,3.109c-0.345,1.621-0.282,2.642,0.187,3.062  c0.47,0.42,1.793,0.63,3.971,0.63H39.1z M34.641,20.137c0.903-3.371,1.293-5.526,1.173-6.466c-0.122-0.939-0.764-1.41-1.927-1.41  c-0.984,0-1.84,0.38-2.565,1.141c-0.727,0.761-1.589,3.006-2.588,6.735L19.67,53.968c-1.128,4.207-1.652,6.802-1.572,7.787  c0.079,0.984,0.745,1.477,1.998,1.477c1.283,0,2.255-0.566,2.918-1.701c0.661-1.133,1.563-3.833,2.707-8.1L34.641,20.137z"/>
<path fill="#3159A8" d="M90.51,32.913c2.497,0.926,4.134,2.44,4.913,4.545c0.778,2.104,0.128,7.037-1.952,14.797  c-1.543,5.761-3.397,10.231-5.562,13.41c-2.165,3.178-5.079,5.596-8.745,7.253c-3.666,1.656-8.021,2.485-13.062,2.485  c-5.729,0-9.968-0.962-12.719-2.886c-2.751-1.924-4.268-4.281-4.55-7.07c-0.281-2.79,0.501-7.63,2.348-14.521l1.534-5.728h18.079  l-3.153,11.769c-0.84,3.133-1.187,5.124-1.041,5.974c0.145,0.851,0.858,1.275,2.142,1.275c1.402,0,2.471-0.537,3.206-1.611  c0.735-1.074,1.71-3.878,2.925-8.413l1.343-5.012c0.744-2.774,0.975-4.803,0.691-6.086c-0.282-1.282-0.982-2.125-2.097-2.528  c-1.116-0.403-3.426-0.633-6.93-0.694L70.7,29.355c4.296,0,6.995-0.164,8.098-0.492c1.102-0.328,2.024-1.044,2.768-2.148  c0.743-1.103,1.431-2.834,2.062-5.191l1.079-4.027c0.68-2.535,0.867-4.207,0.562-5.012c-0.307-0.806-1.013-1.208-2.116-1.208  c-1.253,0-2.224,0.425-2.915,1.275c-0.69,0.85-1.406,2.663-2.15,5.437l-1.595,5.952H58.412l1.655-6.175  c1.854-6.921,4.688-11.597,8.503-14.029c3.813-2.431,9.166-3.647,16.058-3.647c8.621,0,14.018,1.685,16.188,5.053  c2.17,3.369,2.453,8.049,0.848,14.042c-1.087,4.055-2.425,6.984-4.012,8.788C96.064,29.776,93.684,31.422,90.51,32.913z"/>
<style xmlns="http://www.w3.org/1999/xhtml" charset="utf-8" type="text/css" class="firebugResetStyles">/* See license.txt for terms of usage */
/** reset styling **/
.firebugResetStyles {
    z-index: 2147483646 !important;
    top: 0 !important;
    left: 0 !important;
    display: block !important;
    border: 0 none !important;
    margin: 0 !important;
    padding: 0 !important;
    outline: 0 !important;
    min-width: 0 !important;
    max-width: none !important;
    min-height: 0 !important;
    max-height: none !important;
    position: fixed !important;
    transform: rotate(0deg) !important;
    transform-origin: 50% 50% !important;
    border-radius: 0 !important;
    box-shadow: none !important;
    background: transparent none !important;
    pointer-events: none !important;
    white-space: normal !important;
}
style.firebugResetStyles {
    display: none !important;
}

.firebugBlockBackgroundColor {
    background-color: transparent !important;
}

.firebugResetStyles:before, .firebugResetStyles:after {
    content: "" !important;
}
/**actual styling to be modified by firebug theme**/
.firebugCanvas {
    display: none !important;
}

/* * * * * * * * * * * * * * * * * * * * * * * * * * * * * * * * * * * * * * * * * * * * * * * * */
.firebugLayoutBox {
    width: auto !important;
    position: static !important;
}

.firebugLayoutBoxOffset {
    opacity: 0.8 !important;
    position: fixed !important;
}

.firebugLayoutLine {
    opacity: 0.4 !important;
    background-color: #000000 !important;
}

.firebugLayoutLineLeft, .firebugLayoutLineRight {
    width: 1px !important;
    height: 100% !important;
}

.firebugLayoutLineTop, .firebugLayoutLineBottom {
    width: 100% !important;
    height: 1px !important;
}

.firebugLayoutLineTop {
    margin-top: -1px !important;
    border-top: 1px solid #999999 !important;
}

.firebugLayoutLineRight {
    border-right: 1px solid #999999 !important;
}

.firebugLayoutLineBottom {
    border-bottom: 1px solid #999999 !important;
}

.firebugLayoutLineLeft {
    margin-left: -1px !important;
    border-left: 1px solid #999999 !important;
}

/* * * * * * * * * * * * * * * * * * * * * * * * * * * * * * * * * * * * * * * * * * * * * * * * */
.firebugLayoutBoxParent {
    border-top: 0 none !important;
    border-right: 1px dashed #E00 !important;
    border-bottom: 1px dashed #E00 !important;
    border-left: 0 none !important;
    position: fixed !important;
    width: auto !important;
}

.firebugRuler{
    position: absolute !important;
}

.firebugRulerH {
    top: -15px !important;
    left: 0 !important;
    width: 100% !important;
    height: 14px !important;
    background: url("data:image/png,%89PNG%0D%0A%1A%0A%00%00%00%0DIHDR%00%00%13%88%00%00%00%0E%08%02%00%00%00L%25a%0A%00%00%00%04gAMA%00%00%D6%D8%D4OX2%00%00%00%19tEXtSoftware%00Adobe%20ImageReadyq%C9e%3C%00%00%04%F8IDATx%DA%EC%DD%D1n%E2%3A%00E%D1%80%F8%FF%EF%E2%AF2%95%D0D4%0E%C1%14%B0%8Fa-%E9%3E%CC%9C%87n%B9%81%A6W0%1C%A6i%9A%E7y%0As8%1CT%A9R%A5J%95*U%AAT%A9R%A5J%95*U%AAT%A9R%A5J%95*U%AAT%A9R%A5J%95*U%AAT%A9R%A5J%95*U%AAT%A9R%A5J%95*U%AAT%A9R%A5J%95*U%AATE9%FE%FCw%3E%9F%AF%2B%2F%BA%97%FDT%1D~K(%5C%9D%D5%EA%1B%5C%86%B5%A9%BDU%B5y%80%ED%AB*%03%FAV9%AB%E1%CEj%E7%82%EF%FB%18%BC%AEJ8%AB%FA'%D2%BEU9%D7U%ECc0%E1%A2r%5DynwVi%CFW%7F%BB%17%7Dy%EACU%CD%0E%F0%FA%3BX%FEbV%FEM%9B%2B%AD%BE%AA%E5%95v%AB%AA%E3E5%DCu%15rV9%07%B5%7F%B5w%FCm%BA%BE%AA%FBY%3D%14%F0%EE%C7%60%0EU%AAT%A9R%A5J%95*U%AAT%A9R%A5J%95*U%AAT%A9R%A5J%95*U%AAT%A9R%A5J%95*U%AAT%A9R%A5JU%88%D3%F5%1F%AE%DF%3B%1B%F2%3E%DAUCNa%F92%D02%AC%7Dm%F9%3A%D4%F2%8B6%AE*%BF%5C%C2Ym~9g5%D0Y%95%17%7C%C8c%B0%7C%18%26%9CU%CD%13i%F7%AA%90%B3Z%7D%95%B4%C7%60%E6E%B5%BC%05%B4%FBY%95U%9E%DB%FD%1C%FC%E0%9F%83%7F%BE%17%7DkjMU%E3%03%AC%7CWj%DF%83%9An%BCG%AE%F1%95%96yQ%0Dq%5Dy%00%3Et%B5'%FC6%5DS%95pV%95%01%81%FF'%07%00%00%00%00%00%00%00%00%00%F8x%C7%F0%BE%9COp%5D%C9%7C%AD%E7%E6%EBV%FB%1E%E0(%07%E5%AC%C6%3A%ABi%9C%8F%C6%0E9%AB%C0'%D2%8E%9F%F99%D0E%B5%99%14%F5%0D%CD%7F%24%C6%DEH%B8%E9rV%DFs%DB%D0%F7%00k%FE%1D%84%84%83J%B8%E3%BA%FB%EF%20%84%1C%D7%AD%B0%8E%D7U%C8Y%05%1E%D4t%EF%AD%95Q%BF8w%BF%E9%0A%BF%EB%03%00%00%00%00%00%00%00%00%00%B8vJ%8E%BB%F5%B1u%8Cx%80%E1o%5E%CA9%AB%CB%CB%8E%03%DF%1D%B7T%25%9C%D5(%EFJM8%AB%CC'%D2%B2*%A4s%E7c6%FB%3E%FA%A2%1E%80~%0E%3E%DA%10x%5D%95Uig%15u%15%ED%7C%14%B6%87%A1%3B%FCo8%A8%D8o%D3%ADO%01%EDx%83%1A~%1B%9FpP%A3%DC%C6'%9C%95gK%00%00%00%00%00%00%00%00%00%20%D9%C9%11%D0%C0%40%AF%3F%EE%EE%92%94%D6%16X%B5%BCMH%15%2F%BF%D4%A7%C87%F1%8E%F2%81%AE%AAvzr%DA2%ABV%17%7C%E63%83%E7I%DC%C6%0Bs%1B%EF6%1E%00%00%00%00%00%00%00%00%00%80cr%9CW%FF%7F%C6%01%0E%F1%CE%A5%84%B3%CA%BC%E0%CB%AA%84%CE%F9%BF)%EC%13%08WU%AE%AB%B1%AE%2BO%EC%8E%CBYe%FE%8CN%ABr%5Dy%60~%CFA%0D%F4%AE%D4%BE%C75%CA%EDVB%EA(%B7%F1%09g%E5%D9%12%00%00%00%00%00%00%00%00%00H%F6%EB%13S%E7y%5E%5E%FB%98%F0%22%D1%B2'%A7%F0%92%B1%BC%24z3%AC%7Dm%60%D5%92%B4%7CEUO%5E%F0%AA*%3BU%B9%AE%3E%A0j%94%07%A0%C7%A0%AB%FD%B5%3F%A0%F7%03T%3Dy%D7%F7%D6%D4%C0%AAU%D2%E6%DFt%3F%A8%CC%AA%F2%86%B9%D7%F5%1F%18%E6%01%F8%CC%D5%9E%F0%F3z%88%AA%90%EF%20%00%00%00%00%00%00%00%00%00%C0%A6%D3%EA%CFi%AFb%2C%7BB%0A%2B%C3%1A%D7%06V%D5%07%A8r%5D%3D%D9%A6%CAu%F5%25%CF%A2%99%97zNX%60%95%AB%5DUZ%D5%FBR%03%AB%1C%D4k%9F%3F%BB%5C%FF%81a%AE%AB'%7F%F3%EA%FE%F3z%94%AA%D8%DF%5B%01%00%00%00%00%00%00%00%00%00%8E%FB%F3%F2%B1%1B%8DWU%AAT%A9R%A5J%95*U%AAT%A9R%A5J%95*U%AAT%A9R%A5J%95*U%AAT%A9R%A5J%95*U%AAT%A9R%A5J%95*U%AAT%A9R%A5J%95*U%AAT%A9R%A5J%95*UiU%C7%BBe%E7%F3%B9%CB%AAJ%95*U%AAT%A9R%A5J%95*U%AAT%A9R%A5J%95*U%AAT%A9R%A5J%95*U%AAT%A9R%A5J%95*U%AAT%A9R%A5J%95*U%AAT%A9R%A5J%95*U%AAT%A9R%A5*%AAj%FD%C6%D4%5Eo%90%B5Z%ADV%AB%D5j%B5Z%ADV%AB%D5j%B5Z%ADV%AB%D5j%B5Z%ADV%AB%D5j%B5Z%ADV%AB%D5j%B5Z%ADV%AB%D5j%B5Z%ADV%AB%D5j%B5%86%AF%1B%9F%98%DA%EBm%BBV%AB%D5j%B5Z%ADV%AB%D5j%B5Z%ADV%AB%D5j%B5Z%ADV%AB%D5j%B5Z%ADV%AB%D5j%B5Z%ADV%AB%D5j%B5Z%ADV%AB%D5j%B5Z%AD%D6%E4%F58%01%00%00%00%00%00%00%00%00%00%00%00%00%00%40%85%7F%02%0C%008%C2%D0H%16j%8FX%00%00%00%00IEND%AEB%60%82") repeat-x !important;
    border-top: 1px solid #BBBBBB !important;
    border-right: 1px dashed #BBBBBB !important;
    border-bottom: 1px solid #000000 !important;
}

.firebugRulerV {
    top: 0 !important;
    left: -15px !important;
    width: 14px !important;
    height: 100% !important;
    background: url("data:image/png,%89PNG%0D%0A%1A%0A%00%00%00%0DIHDR%00%00%00%0E%00%00%13%88%08%02%00%00%00%0E%F5%CB%10%00%00%00%04gAMA%00%00%D6%D8%D4OX2%00%00%00%19tEXtSoftware%00Adobe%20ImageReadyq%C9e%3C%00%00%06~IDATx%DA%EC%DD%D1v%A20%14%40Qt%F1%FF%FF%E4%97%D9%07%3BT%19%92%DC%40(%90%EEy%9A5%CB%B6%E8%F6%9Ac%A4%CC0%84%FF%DC%9E%CF%E7%E3%F1%88%DE4%F8%5D%C7%9F%2F%BA%DD%5E%7FI%7D%F18%DDn%BA%C5%FB%DF%97%BFk%F2%10%FF%FD%B4%F2M%A7%FB%FD%FD%B3%22%07p%8F%3F%AE%E3%F4S%8A%8F%40%EEq%9D%BE8D%F0%0EY%A1Uq%B7%EA%1F%81%88V%E8X%3F%B4%CEy%B7h%D1%A2E%EBohU%FC%D9%AF2fO%8BBeD%BE%F7X%0C%97%A4%D6b7%2Ck%A5%12%E3%9B%60v%B7r%C7%1AI%8C%BD%2B%23r%00c0%B2v%9B%AD%CA%26%0C%1Ek%05A%FD%93%D0%2B%A1u%8B%16-%95q%5Ce%DCSO%8E%E4M%23%8B%F7%C2%FE%40%BB%BD%8C%FC%8A%B5V%EBu%40%F9%3B%A72%FA%AE%8C%D4%01%CC%B5%DA%13%9CB%AB%E2I%18%24%B0n%A9%0CZ*Ce%9C%A22%8E%D8NJ%1E%EB%FF%8F%AE%CAP%19*%C3%BAEKe%AC%D1%AAX%8C*%DEH%8F%C5W%A1e%AD%D4%B7%5C%5B%19%C5%DB%0D%EF%9F%19%1D%7B%5E%86%BD%0C%95%A12%AC%5B*%83%96%CAP%19%F62T%86%CAP%19*%83%96%CA%B8Xe%BC%FE)T%19%A1%17xg%7F%DA%CBP%19*%C3%BA%A52T%86%CAP%19%F62T%86%CA%B0n%A9%0CZ%1DV%C6%3D%F3%FCH%DE%B4%B8~%7F%5CZc%F1%D6%1F%AF%84%F9%0F6%E6%EBVt9%0E~%BEr%AF%23%B0%97%A12T%86%CAP%19%B4T%86%CA%B8Re%D8%CBP%19*%C3%BA%A52huX%19%AE%CA%E5%BC%0C%7B%19*CeX%B7h%A9%0C%95%E1%BC%0C%7B%19*CeX%B7T%06%AD%CB%5E%95%2B%BF.%8F%C5%97%D5%E4%7B%EE%82%D6%FB%CF-%9C%FD%B9%CF%3By%7B%19%F62T%86%CA%B0n%D1R%19*%A3%D3%CA%B0%97%A12T%86uKe%D0%EA%B02*%3F1%99%5DB%2B%A4%B5%F8%3A%7C%BA%2B%8Co%7D%5C%EDe%A8%0C%95a%DDR%19%B4T%C66%82fA%B2%ED%DA%9FC%FC%17GZ%06%C9%E1%B3%E5%2C%1A%9FoiB%EB%96%CA%A0%D5qe4%7B%7D%FD%85%F7%5B%ED_%E0s%07%F0k%951%ECr%0D%B5C%D7-g%D1%A8%0C%EB%96%CA%A0%A52T%C6)*%C3%5E%86%CAP%19%D6-%95A%EB*%95q%F8%BB%E3%F9%AB%F6%E21%ACZ%B7%22%B7%9B%3F%02%85%CB%A2%5B%B7%BA%5E%B7%9C%97%E1%BC%0C%EB%16-%95%A12z%AC%0C%BFc%A22T%86uKe%D0%EA%B02V%DD%AD%8A%2B%8CWhe%5E%AF%CF%F5%3B%26%CE%CBh%5C%19%CE%CB%B0%F3%A4%095%A1%CAP%19*Ce%A8%0C%3BO*Ce%A8%0C%95%A12%3A%AD%8C%0A%82%7B%F0v%1F%2FD%A9%5B%9F%EE%EA%26%AF%03%CA%DF9%7B%19*Ce%A8%0C%95%A12T%86%CA%B8Ze%D8%CBP%19*Ce%A8%0C%95%D1ae%EC%F7%89I%E1%B4%D7M%D7P%8BjU%5C%BB%3E%F2%20%D8%CBP%19*Ce%A8%0C%95%A12T%C6%D5*%C3%5E%86%CAP%19*Ce%B4O%07%7B%F0W%7Bw%1C%7C%1A%8C%B3%3B%D1%EE%AA%5C%D6-%EBV%83%80%5E%D0%CA%10%5CU%2BD%E07YU%86%CAP%19*%E3%9A%95%91%D9%A0%C8%AD%5B%EDv%9E%82%FFKOee%E4%8FUe%A8%0C%95%A12T%C6%1F%A9%8C%C8%3D%5B%A5%15%FD%14%22r%E7B%9F%17l%F8%BF%ED%EAf%2B%7F%CF%ECe%D8%CBP%19*Ce%A8%0C%95%E1%93~%7B%19%F62T%86%CAP%19*Ce%A8%0C%E7%13%DA%CBP%19*Ce%A8%0CZf%8B%16-Z%B4h%D1R%19f%8B%16-Z%B4h%D1R%19%B4%CC%16-Z%B4h%D1R%19%B4%CC%16-Z%B4h%D1%A2%A52%CC%16-Z%B4h%D1%A2%A52h%99-Z%B4h%D1%A2%A52h%99-Z%B4h%D1%A2EKe%98-Z%B4h%D1%A2EKe%D02%5B%B4h%D1%A2EKe%D02%5B%B4h%D1%A2E%8B%96%CA0%5B%B4h%D1%A2E%8B%96%CA%A0e%B6h%D1%A2E%8B%96%CA%A0e%B6h%D1%A2E%8B%16-%95a%B6h%D1%A2E%8B%16-%95A%CBl%D1%A2E%8B%16-%95A%CBl%D1%A2E%8B%16-Z*%C3l%D1%A2E%8B%16-Z*%83%96%D9%A2E%8B%16-Z*%83%96%D9%A2E%8B%16-Z%B4T%86%D9%A2E%8B%16-Z%B4T%06-%B3E%8B%16-Z%B4T%06-%B3E%8B%16-Z%B4h%A9%0C%B3E%8B%16-Z%B4h%A9%0CZf%8B%16-Z%B4h%A9%0CZf%8B%16-Z%B4h%D1R%19f%8B%16-Z%B4h%D1R%19%B4%CC%16-Z%B4h%D1R%19%B4%CC%16-Z%B4h%D1%A2%A52%CC%16-Z%B4h%D1%A2%A52h%99-Z%B4h%D1%A2%A52h%99-Z%B4h%D1%A2EKe%98-Z%B4h%D1%A2EKe%D02%5B%B4h%D1%A2EKe%D02%5B%B4h%D1%A2E%8B%96%CA0%5B%B4h%D1%A2E%8B%96%CA%A0e%B6h%D1%A2E%8B%96%CA%A0e%B6h%D1%A2E%8B%16-%95a%B6h%D1%A2E%8B%16-%95A%CBl%D1%A2E%8B%16-%95A%CBl%D1%A2E%8B%16-Z*%C3l%D1%A2E%8B%16-Z*%83%96%D9%A2E%8B%16-Z*%83%96%D9%A2E%8B%16-Z%B4T%86%D9%A2E%8B%16-Z%B4T%06-%B3E%8B%16-Z%B4T%06-%B3E%8B%16-Z%B4h%A9%0C%B3E%8B%16-Z%B4h%A9%0CZf%8B%16-Z%B4h%A9%0CZf%8B%16-Z%B4h%D1R%19f%8B%16-Z%B4h%D1R%19%B4%CC%16-Z%B4h%D1R%19%B4%CC%16-Z%B4h%D1%A2%A52%CC%16-Z%B4h%D1%A2%A52h%99-Z%B4h%D1%A2%A52h%99-Z%B4h%D1%A2EKe%98-Z%B4h%D1%A2EKe%D02%5B%B4h%D1%A2EKe%D02%5B%B4h%D1%A2E%8B%96%CA0%5B%B4h%D1%A2E%8B%96%CA%A0e%B6h%D1%A2E%8B%96%CA%A0e%B6h%D1%A2E%8B%16-%95a%B6h%D1%A2E%8B%16-%95A%CBl%D1%A2E%8B%16-%95A%CBl%D1%A2E%8B%16-Z*%C3l%D1%A2E%8B%16-Z*%83%96%D9%A2E%8B%16-Z*%83%96%D9%A2E%8B%16-Z%B4T%86%D9%A2E%8B%16-Z%B4T%06-%B3E%8B%16-Z%B4%AE%A4%F5%25%C0%00%DE%BF%5C'%0F%DA%B8q%00%00%00%00IEND%AEB%60%82") repeat-y !important;
    border-left: 1px solid #BBBBBB !important;
    border-right: 1px solid #000000 !important;
    border-bottom: 1px dashed #BBBBBB !important;
}

.overflowRulerX &gt; .firebugRulerV {
    left: 0 !important;
}

.overflowRulerY &gt; .firebugRulerH {
    top: 0 !important;
}

/* * * * * * * * * * * * * * * * * * * * * * * * * * * * * * * * * * * * * * * * * * * * * * * * */
.fbProxyElement {
    position: fixed !important;
    pointer-events: auto !important;
}
</style></svg>